<svg width="291" height="53" viewBox="0 0 291 53" fill="none" xmlns="http://www.w3.org/2000/svg">
<path d="M267.723 43.4506V9.32617H290.671V15.5098H274.822V23.2508H289.755V29.4344H274.822V37.267H290.671V43.4506H267.723Z" fill="black"/>
<path d="M243.608 43.9996C241.471 43.9996 239.455 43.6179 237.562 42.8545C235.699 42.0605 234.081 40.946 232.707 39.5108C231.363 38.0755 230.355 36.3808 229.684 34.4264L235.501 31.8156C236.356 33.6783 237.531 35.1441 239.028 36.2128C240.555 37.2816 242.234 37.816 244.066 37.816C245.043 37.816 245.883 37.6633 246.585 37.3579C247.288 37.0526 247.837 36.6403 248.234 36.1212C248.631 35.5716 248.83 34.9303 248.83 34.1974C248.83 33.4035 248.586 32.7317 248.097 32.182C247.608 31.6018 246.845 31.1438 245.807 30.8079L239.119 28.6093C236.402 27.7237 234.356 26.4717 232.982 24.8533C231.607 23.2043 230.92 21.2347 230.92 18.9445C230.92 16.9291 231.409 15.158 232.386 13.6312C233.394 12.1043 234.783 10.9134 236.554 10.0584C238.356 9.20339 240.417 8.77588 242.738 8.77588C244.784 8.77588 246.677 9.12705 248.418 9.82938C250.158 10.5317 251.655 11.5242 252.907 12.8067C254.189 14.0892 255.151 15.6313 255.792 17.4329L250.021 20.0438C249.38 18.4559 248.418 17.2192 247.135 16.3336C245.853 15.4175 244.387 14.9595 242.738 14.9595C241.791 14.9595 240.952 15.1122 240.219 15.4175C239.486 15.7229 238.921 16.1657 238.524 16.7459C238.127 17.2955 237.928 17.9368 237.928 18.6697C237.928 19.4636 238.188 20.166 238.707 20.7767C239.226 21.3569 240.005 21.8149 241.043 22.1508L247.593 24.2578C250.341 25.1434 252.387 26.3801 253.731 27.968C255.105 29.5559 255.792 31.495 255.792 33.7852C255.792 35.77 255.273 37.5412 254.235 39.0985C253.197 40.6253 251.761 41.8315 249.929 42.7171C248.128 43.5721 246.021 43.9996 243.608 43.9996Z" fill="black"/>
<path d="M193.77 43.4506V9.32617H206.824C209.175 9.32617 211.252 9.73841 213.053 10.5629C214.885 11.3874 216.321 12.6088 217.359 14.2273C218.397 15.8457 218.916 17.8458 218.916 20.2277C218.916 22.5484 218.382 24.5333 217.313 26.1823C216.244 27.8007 214.809 29.0221 213.007 29.8466L220.794 43.4506H212.824L204.396 28.3809L208.977 31.0834H200.869V43.4506H193.77ZM200.869 24.8997H206.87C207.877 24.8997 208.748 24.7012 209.48 24.3043C210.213 23.9073 210.778 23.3576 211.175 22.6553C211.603 21.953 211.817 21.1438 211.817 20.2277C211.817 19.281 211.603 18.4566 211.175 17.7542C210.778 17.0519 210.213 16.5022 209.48 16.1053C208.748 15.7083 207.877 15.5098 206.87 15.5098H200.869V24.8997Z" fill="black"/>
<path d="M167.314 44.0002C164.627 44.0002 162.23 43.4353 160.123 42.3055C158.016 41.1756 156.352 39.6335 155.13 37.6792C153.939 35.6943 153.344 33.4499 153.344 30.9459V9.32617H160.443V30.4879C160.443 31.8315 160.734 33.0529 161.314 34.1523C161.924 35.221 162.749 36.0608 163.787 36.6715C164.825 37.2822 166.001 37.5876 167.314 37.5876C168.658 37.5876 169.833 37.2822 170.841 36.6715C171.879 36.0608 172.689 35.221 173.269 34.1523C173.879 33.0529 174.185 31.8315 174.185 30.4879V9.32617H181.285V30.9459C181.285 33.4499 180.674 35.6943 179.452 37.6792C178.261 39.6335 176.612 41.1756 174.505 42.3055C172.398 43.4353 170.001 44.0002 167.314 44.0002Z" fill="black"/>
<path d="M123.753 43.9996C121.188 43.9996 118.806 43.5568 116.607 42.6713C114.409 41.7857 112.485 40.549 110.836 38.9611C109.218 37.3427 107.95 35.4647 107.034 33.3271C106.118 31.1896 105.66 28.8688 105.66 26.3648C105.66 23.8609 106.103 21.5401 106.988 19.4025C107.905 17.265 109.172 15.4023 110.79 13.8144C112.439 12.2265 114.363 10.9898 116.562 10.1042C118.76 9.21866 121.157 8.77588 123.753 8.77588C126.349 8.77588 128.746 9.21866 130.944 10.1042C133.143 10.9898 135.051 12.2265 136.67 13.8144C138.319 15.4023 139.586 17.265 140.472 19.4025C141.388 21.5401 141.846 23.8609 141.846 26.3648C141.846 28.8688 141.388 31.1896 140.472 33.3271C139.556 35.4647 138.273 37.3427 136.624 38.9611C135.006 40.549 133.097 41.7857 130.898 42.6713C128.7 43.5568 126.318 43.9996 123.753 43.9996ZM123.753 37.587C125.31 37.587 126.746 37.3121 128.059 36.7625C129.402 36.2128 130.578 35.4494 131.586 34.4723C132.593 33.4646 133.372 32.2736 133.922 30.8995C134.471 29.5254 134.746 28.0138 134.746 26.3648C134.746 24.7159 134.471 23.2196 133.922 21.876C133.372 20.5019 132.593 19.3109 131.586 18.3032C130.578 17.2955 129.402 16.5321 128.059 16.013C126.746 15.4633 125.31 15.1885 123.753 15.1885C122.196 15.1885 120.745 15.4633 119.402 16.013C118.088 16.5321 116.928 17.2955 115.92 18.3032C114.913 19.3109 114.134 20.5019 113.584 21.876C113.035 23.2196 112.76 24.7159 112.76 26.3648C112.76 28.0138 113.035 29.5254 113.584 30.8995C114.134 32.2736 114.913 33.4646 115.92 34.4723C116.928 35.4494 118.088 36.2128 119.402 36.7625C120.745 37.3121 122.196 37.587 123.753 37.587Z" fill="black"/>
<path d="M80.6288 43.9996C78.1859 43.9996 75.9109 43.5568 73.8039 42.6713C71.7274 41.7857 69.9105 40.549 68.3531 38.9611C66.7958 37.3732 65.5743 35.5105 64.6888 33.3729C63.8338 31.2354 63.4062 28.8994 63.4062 26.3648C63.4062 23.8303 63.8338 21.4943 64.6888 19.3567C65.5438 17.1887 66.75 15.3259 68.3073 13.7686C69.8647 12.1807 71.6816 10.9592 73.7581 10.1042C75.8651 9.21866 78.1553 8.77588 80.6288 8.77588C83.1022 8.77588 85.3161 9.18812 87.2704 10.0126C89.2553 10.8371 90.9348 11.9364 92.3089 13.3105C93.6831 14.6847 94.6602 16.2115 95.2404 17.891L88.9652 20.9141C88.385 19.2651 87.362 17.9063 85.8963 16.8375C84.4611 15.7382 82.7052 15.1885 80.6288 15.1885C78.6134 15.1885 76.8423 15.6618 75.3154 16.6085C73.7886 17.5551 72.5977 18.8682 71.7427 20.5477C70.9182 22.1966 70.506 24.1357 70.506 26.3648C70.506 28.594 70.9182 30.5483 71.7427 32.2278C72.5977 33.9073 73.7886 35.2204 75.3154 36.167C76.8423 37.1136 78.6134 37.587 80.6288 37.587C82.7052 37.587 84.4611 37.0526 85.8963 35.9838C87.362 34.8845 88.385 33.5104 88.9652 31.8614L95.2404 34.8845C94.6602 36.564 93.6831 38.0908 92.3089 39.465C90.9348 40.8391 89.2553 41.9384 87.2704 42.7629C85.3161 43.5874 83.1022 43.9996 80.6288 43.9996Z" fill="black"/>
<path d="M33.7778 0H4.22222C3.10242 0 2.02848 0.446722 1.23666 1.24189C0.44484 2.03706 0 3.11554 0 4.24008V50.881C0.00018746 51.2594 0.101195 51.6308 0.292541 51.9567C0.483888 52.2826 0.7586 52.5512 1.08817 52.7345C1.41774 52.9178 1.79016 53.0092 2.16679 52.9993C2.54341 52.9893 2.91051 52.8783 3.23 52.6778L19 42.7798L34.7726 52.6778C35.0921 52.8776 35.4589 52.988 35.8351 52.9977C36.2114 53.0073 36.5833 52.9157 36.9125 52.7325C37.2416 52.5492 37.516 52.281 37.7072 51.9554C37.8984 51.6299 37.9995 51.259 38 50.881V4.24008C38 3.11554 37.5552 2.03706 36.7633 1.24189C35.9715 0.446722 34.8976 0 33.7778 0ZM20.1162 38.4841C19.7807 38.2735 19.393 38.1618 18.9974 38.1618C18.6017 38.1618 18.214 38.2735 17.8785 38.4841L4.22222 47.057V39.3347L19 30.0595L33.7778 39.3347V47.057L20.1162 38.4841Z" fill="#2962FF"/>
</svg>
